# AST/ASF file generated using VICON BodyLanguage
# -----------------------------------------------
:version 1.10
:name VICON
:units
  mass 1.0
  length 0.45
  angle deg
:documentation
   .ast/.asf automatically generated from VICON data using
   VICON BodyBuilder and BodyLanguage model FoxedUp or BRILLIANT.MOD
:root
   order TX TY TZ RX RY RZ
   axis XYZ
   position 0 0 0  
   orientation 0 0 0 
:bonedata
  begin
     id 1 
     name lhipjoint
     direction 0.612567 -0.751349 0.245431 
     length 2.42285 
     axis 0 0 0  XYZ
  end
  begin
     id 2 
     name lfemur
     direction 0.34202 -0.939693 0  
     length 7.11304  
     axis 0 0 20  XYZ
    dof rx ry rz
    limits (-160.0 20.0)
           (-70.0 70.0)
           (-60.0 70.0)
  end
  begin
     id 3 
     name ltibia
     direction 0.34202 -0.939693 0   
     length 7.84529   
     axis 0 0 20   XYZ
    dof rx
    limits (-10.0 170.0)
  end
  begin
     id 4 
     name lfoot
     direction 0.0779239 -0.214094 0.9737   
     length 1.97176   
     axis -90 7.62852e-016 20   XYZ
    dof rx rz
    limits (-45.0 90.0)
           (-70.0 20.0)
  end
  begin
     id 5 
     name ltoes
     direction 1.53565e-011 -4.21709e-011 1   
     length 0.993197   
     axis -90 7.62852e-016 20   XYZ
    dof rx
    limits (-90.0 20.0)
  end
  begin
     id 6 
     name rhipjoint
     direction -0.665722 -0.709315 0.231701   
     length 2.56642  
     axis 0 0 0  XYZ 
  end
  begin
     id 7 
     name rfemur
     direction -0.34202 -0.939693 0   
     length 7.32108   
     axis 0 0 -20   XYZ
    dof rx ry rz
    limits (-160.0 20.0)
           (-70.0 70.0)
           (-70.0 60.0)
  end
  begin
     id 8 
     name rtibia
     direction -0.34202 -0.939693 0   
     length 7.81254   
     axis 0 0 -20   XYZ
    dof rx
    limits (-10.0 170.0)
 end
 begin
     id 9 
     name rfoot
     direction -0.0832806 -0.228812 0.969902   
     length 2.08278  
     axis -90 -7.62852e-016 -20   XYZ
    dof rx rz
    limits (-45.0 90.0)
           (-20.0 70.0)
  end
  begin
     id 10 
     name rtoes
     direction -1.53589e-011 -4.22086e-011 1   
     length 1.04609   
     axis -90 -7.62852e-016 -20   XYZ
    dof rx
    limits (-90.0 20.0)
  end
  begin
     id 11 
     name lowerback
     direction -0.00506013 0.988403 -0.151766   
     length 2.01978   
     axis 0 0 0   XYZ
    dof rx ry rz
    limits (-20.0 45.0)
           (-30.0 30.0)
           (-30.0 30.0)
  end
  begin
     id 12 
     name upperback
     direction -0.00836389 0.99968 0.0238859   
     length 2.01276   
     axis 0 0 0   XYZ
    dof rx ry rz
    limits (-20.0 45.0)
           (-30.0 30.0)
           (-30.0 30.0)
  end
  begin
     id 13 
     name thorax
     direction -0.00684136 0.995386 0.0957043   
     length 2.07303   
     axis 0 0 0   XYZ
    dof rx ry rz
    limits (-20.0 45.0)
           (-30.0 30.0)
           (-30.0 30.0)
  end
  begin
     id 14 
     name lowerneck
     direction -0.0161045 0.999661 0.0204485   
     length 1.91243   
     axis 0 0 0   XYZ
    dof rx ry rz
    limits (-20.0 45.0)
           (-30.0 30.0)
           (-30.0 30.0)
  end
  begin
     id 15 
     name upperneck
     direction 0.0553583 0.990946 -0.122319   
     length 1.91574   
     axis 0 0 0   XYZ
    dof rx ry rz
    limits (-20.0 45.0)
           (-30.0 30.0)
           (-30.0 30.0)
  end
  begin
     id 16
     name head
     direction 0.0180273 0.998839 -0.0446756  
     length 1.92693  
     axis 0 0 0   XYZ
    dof rx ry rz
    limits (-20.0 45.0)
           (-30.0 30.0)
           (-30.0 30.0)
  end
  begin
     id 17 
     name lclavicle
     direction 0.945646 0.319323 -0.0615358  
     length 4.0076  
     axis 0 0 0   XYZ
    dof ry rz
    limits (-20.0 10.0)
           (0.0 20.0)
  end
  begin
     id 18 
     name lhumerus
     direction 1 -4.48967e-011 -2.79996e-027   
     length 5.64147   
     axis 180 -30 -90   XYZ
    dof rx ry rz
    limits (-60.0 90.0)
           (-90.0 90.0)
           (-90.0 90.0)
  end
  begin
     id 19
     name lradius
     direction 1 -4.48976e-011 -9.5122e-027   
     length 2.86444   
     axis 180 -30 -90   XYZ
    dof rx
    limits (-10.0 170.0)
  end
  begin
     id 20
     name lwrist
     direction 1 -4.48983e-011 -1.24047e-026   
     length 1.43222   
     axis 9.05591e-015 90 90   XYZ
    dof ry
    limits (-180.0 0.0)
 end
  begin
     id 21 
     name lhand
     direction 1 -4.4892e-011 -2.48094e-026   
     length 0.722123   
     axis 1.58305e-014 90 90   XYZ
    dof rx rz
    limits (-90.0 90.0)
           (-45.0 45.0)
  end
  begin
     id 22 
     name lfingers
     direction 1 -4.48895e-011 -4.96187e-026   
     length 0.582194   
     axis 3.1661e-014 90 90   XYZ
    dof rx
    limits (0.0 90.0)
  end
  begin
     id 23
     name lthumb
     direction 0.707107 -6.34961e-011 0.707107   
     length 0.835918   
     axis -90 45 2.85299e-015   XYZ
    dof rx rz
    limits (-45.0 45.0)
           (-45.0 45.0)
  end
  begin
     id 24 
     name rclavicle
     direction -0.932635 0.324218 -0.15835   
     length 3.65819  
     axis 0 0 0   XYZ 
    dof ry rz
    limits (-10.0 20.0)
           (-20.0 0.0)
  end
  begin
     id 25 
     name rhumerus
     direction -1 -4.48965e-011 -4.02296e-027  
     length 5.44729   
     axis 180 30 90   XYZ
    dof rx ry rz
    limits (-90.0 60.0)
           (-90.0 90.0)
           (-90.0 90.0)
  end
  begin
     id 26 
     name rradius
     direction -1 -4.48957e-011 -8.81087e-027   
     length 3.08821   
     axis 180 30 90   XYZ
    dof rx
    limits (-10.0 170.0)
  end
  begin
     id 27 
     name rwrist
     direction -1 -4.49015e-011 -1.24047e-026   
     length 1.5441   
     axis 9.05591e-015 -90 -90   XYZ
    dof ry
    limits (-180.0 0.0)
  end
  begin
     id 28
     name rhand
     direction -1 -4.4891e-011 -2.48094e-026   
     length 0.821049   
     axis 1.58305e-014 -90 -90   XYZ
    dof rx rz
    limits (-90.0 90.0)
           (-45.0 45.0)
  end
  begin
     id 29
     name rfingers
     direction -1 -4.48985e-011 -4.96187e-026   
     length 0.661951   
     axis 3.1661e-014 -90 -90   XYZ
    dof rx
    limits (0.0 90.0)
  end
  begin
     id 30
     name rthumb
     direction -0.707107 -6.34906e-011 0.707107   
     length 0.950433   
     axis -90 -45 -2.85299e-015   XYZ
    dof rx rz
    limits (-45.0 45.0)
           (-45.0 45.0)
  end
:hierarchy
  begin
    root lhipjoint rhipjoint lowerback
    lhipjoint lfemur
    lfemur ltibia
    ltibia lfoot
    lfoot ltoes
    rhipjoint rfemur
    rfemur rtibia
    rtibia rfoot
    rfoot rtoes
    lowerback upperback
    upperback thorax
    thorax lowerneck lclavicle rclavicle
    lowerneck upperneck
    upperneck head
    lclavicle lhumerus
    lhumerus lradius
    lradius lwrist
    lwrist lhand lthumb
    lhand lfingers
    rclavicle rhumerus
    rhumerus rradius
    rradius rwrist
    rwrist rhand rthumb
    rhand rfingers
  end

#!OML:ASF F:\VICON\USERDATA\INSTALL\rory3\rory3.ASF
:FULLY-SPECIFIED
:DEGREES
1652
root 2.86224 17.5195 -0.0512268 544.919 76.15 547.898
lowerback 7.81918 0.740597 6.56121
upperback 0.811382 1.72925 2.439
thorax -3.4328 0.81873 -1.33505
lowerneck -3.42068 -7.63712 -4.63401
upperneck 2.24492 -10.2935 11.0605
head 2.26938 -4.92662 4.12224
rclavicle 3.13086e-014 3.18055e-015
rhumerus -12.5654 -31.7845 -65.6877
rradius 74.4009
rwrist -33.5249
rhand -11.8707 6.15855
rfingers 7.12502
rthumb 14.1816 -23.3374
lclavicle 3.13086e-014 3.18055e-015
lhumerus -2.36399 12.3962 54.1735
lradius 56.1372
lwrist 60.3561
lhand -10.1546 6.15939
lfingers 7.12502
lthumb 15.8348 35.5318
rfemur 0.705729 -5.73252 20.377
rtibia 20.5422
rfoot -25.647 -13.1686
rtoes -3.65917
lfemur -8.53207 -3.57607 -14.9694
ltibia 23.2824
lfoot -9.3481 -13.0955
ltoes 3.65134
1653
root 2.86935 17.5177 -0.0530895 545.501 76.4485 548.57
lowerback 7.84876 0.667648 6.6344
upperback 0.738442 1.64705 2.47165
thorax -3.53038 0.773019 -1.33477
lowerneck -3.24316 -7.55906 -4.73173
upperneck 1.79234 -10.1506 10.9603
head 2.07193 -4.87765 4.12342
rclavicle -2.69105e-014 -4.77083e-014
rhumerus -13.2837 -33.6845 -65.669
rradius 74.918
rwrist -38.0305
rhand -11.9632 6.25207
rfingers 7.12502
rthumb 14.0925 -23.2501
lclavicle -2.69105e-014 -4.77083e-014
lhumerus -2.55868 14.7058 55.5434
lradius 57.0029
lwrist 64.9798
lhand -9.06751 6.62657
lfingers 7.12502
lthumb 16.8815 35.9128
rfemur 0.7772 -5.74533 20.4624
rtibia 20.5155
rfoot -25.5485 -12.8953
rtoes -3.2652
lfemur -8.42421 -3.48223 -14.8261
ltibia 23.4049
lfoot -9.5109 -12.9484
ltoes 3.61118
1654
root 2.87797 17.5157 -0.0536629 546.196 76.7869 549.305
lowerback 7.83892 0.538399 6.66012
upperback 0.600129 1.48889 2.55951
thorax -3.68248 0.688112 -1.24234
lowerneck -2.90056 -7.39787 -5.05207
upperneck 1.37039 -9.89897 10.9096
head 1.86365 -4.77957 4.19611
rclavicle -4.02787e-014 -3.4191e-014
rhumerus -14.1374 -35.1026 -65.4931
rradius 75.3558
rwrist -42.8096
rhand -11.8865 6.61163
rfingers 7.12502
rthumb 14.1664 -22.8854
lclavicle -4.02787e-014 -3.4191e-014
lhumerus -3.10956 17.0564 56.7359
lradius 57.9329
lwrist 69.2295
lhand -8.00167 6.64362
lfingers 7.12502
lthumb 17.9072 35.8392
rfemur 0.783885 -5.66551 20.5816
rtibia 20.5088
rfoot -25.3755 -12.7889
rtoes -3.75905
lfemur -8.36121 -3.35417 -14.6687
ltibia 23.5181
lfoot -9.74974 -12.8188
ltoes 3.34178
1655
root 2.88691 17.5136 -0.0534904 546.659 77.1424 549.773
lowerback 7.80495 0.438283 6.58049
upperback 0.465834 1.35445 2.60926
thorax -3.81607 0.616391 -1.13244
lowerneck -2.6493 -7.26843 -5.22817
upperneck 0.987998 -9.69638 10.7933
head 1.67628 -4.70007 4.21188
rclavicle 3.9906e-014 -6.36111e-015
rhumerus -15.1421 -36.3039 -65.1978
rradius 75.8393
rwrist -47.5081
rhand -11.7009 7.22366
rfingers 7.12502
rthumb 14.3452 -22.2607
lclavicle 3.9906e-014 -6.36111e-015
lhumerus -3.6268 19.2344 57.8844
lradius 58.9398
lwrist 73.5823
lhand -7.10699 6.85413
lfingers 7.12502
lthumb 18.7679 35.9687
rfemur 0.758598 -5.57562 20.6352
rtibia 20.509
rfoot -25.1937 -12.7547
rtoes -4.53641
lfemur -8.31465 -3.22477 -14.5909
ltibia 23.6398
lfoot -10.061 -12.6422
ltoes 2.45277
1656
root 2.89666 17.5122 -0.0538497 547.138 77.524 550.263
lowerback 7.75539 0.401699 6.50681
upperback 0.379081 1.29646 2.59258
thorax -3.88377 0.58416 -1.10226
lowerneck -2.53792 -7.19672 -5.17049
upperneck 0.621606 -9.57458 10.715
head 1.51589 -4.65148 4.18741
rclavicle 2.22887e-014 3.18055e-015
rhumerus -16.2018 -37.3451 -64.817
rradius 76.2876
rwrist -51.9752
rhand -11.6316 7.92745
rfingers 7.12502
rthumb 14.412 -21.5522
lclavicle 2.22887e-014 3.18055e-015
lhumerus -3.99618 21.163 59.0498
lradius 60.1195
lwrist 78.2624
lhand -6.72783 7.05514
lfingers 7.12502
lthumb 19.1326 36.1341
rfemur 0.730045 -5.51086 20.6683
rtibia 20.5339
rfoot -24.9695 -12.6981
rtoes -5.20983
lfemur -8.21974 -3.08977 -14.5159
ltibia 23.7123
lfoot -10.2768 -12.4872
ltoes 1.80214
1657
root 2.90755 17.5107 -0.0548326 547.595 77.9196 550.775
lowerback 7.68957 0.36092 6.47336
upperback 0.34531 1.23115 2.55242
thorax -3.88597 0.550337 -1.1176
lowerneck -2.54303 -7.11429 -5.00927
upperneck 0.326063 -9.4423 10.5375
head 1.38724 -4.59352 4.10363
rclavicle 6.88292e-015 -2.78299e-014
rhumerus -17.1157 -38.3424 -64.5661
rradius 76.6698
rwrist -55.8123
rhand -11.8509 8.78694
rfingers 7.12502
rthumb 14.2007 -20.7076
lclavicle 6.88292e-015 -2.78299e-014
lhumerus -4.37006 23.0449 60.1641
lradius 61.404
lwrist 82.8259
lhand -6.11435 7.22739
lfingers 7.12502
lthumb 19.7224 36.2469
rfemur 0.759413 -5.4078 20.6912
rtibia 20.5542
rfoot -24.8243 -12.5211
rtoes -5.27336
lfemur -8.04736 -2.91106 -14.4476
ltibia 23.7429
lfoot -10.4177 -12.3789
ltoes 1.75206
1658
root 2.91945 17.5087 -0.0562685 547.631 78.2801 550.881
lowerback 7.64305 0.313563 6.37101
upperback 0.327149 1.15114 2.50215
thorax -3.88462 0.510595 -1.10379
lowerneck -2.58779 -7.04303 -4.96449
upperneck 0.0109355 -9.32139 10.4518
head 1.2738 -4.53948 4.07276
rclavicle -2.05245e-014 7.15625e-015
rhumerus -17.8976 -39.4475 -64.3599
rradius 77.0241
rwrist -58.8047
rhand -12.1439 9.47294
rfingers 7.12502
rthumb 13.9183 -20.0412
lclavicle -2.05245e-014 7.15625e-015
lhumerus -4.80561 24.6916 61.27
lradius 62.8042
lwrist 86.9864
lhand -5.41167 7.25317
lfingers 7.12502
lthumb 20.3978 36.2019
rfemur 0.825658 -5.29853 20.6264
rtibia 20.5756
rfoot -24.7248 -12.3633
rtoes -5.13411
lfemur -7.83738 -2.85827 -14.489
ltibia 23.7376
lfoot -10.5965 -12.157
ltoes 1.7478
1659
root 2.93127 17.5086 -0.0569484 548.156 78.6647 551.44
lowerback 7.56237 0.275258 6.35084
upperback 0.293888 1.0902 2.47589
thorax -3.8777 0.479328 -1.1125
lowerneck -2.54187 -6.96735 -4.99174
upperneck -0.369682 -9.1908 10.4449
head 1.1314 -4.48321 4.08816
rclavicle -1.30452e-014 -8.74653e-015
rhumerus -18.7426 -40.3125 -64.0631
rradius 77.5182
rwrist -61.0758
rhand -12.4467 9.72694
rfingers 7.12502
rthumb 13.6265 -19.8071
lclavicle -1.30452e-014 -8.74653e-015
lhumerus -5.35186 26.0032 62.2425
lradius 64.2922
lwrist 91.2241
lhand -5.18705 6.99575
lfingers 7.12502
lthumb 20.6137 35.9212
rfemur 0.825785 -5.1141 20.673
rtibia 20.6156
rfoot -24.6337 -12.2008
rtoes -5.14701
lfemur -7.6488 -2.87757 -14.4384
ltibia 23.7048
lfoot -10.7917 -11.8243
ltoes 1.80765
1660
root 2.94044 17.5073 -0.0560371 548.647 79.1326 551.97
lowerback 7.51962 0.24321 6.28699
upperback 0.244233 1.03795 2.4531
thorax -3.90939 0.451723 -1.09474
lowerneck -2.33672 -6.86966 -4.90039
upperneck -0.853453 -9.02929 10.2616
head 0.907907 -4.41964 4.02822
rclavicle -1.54679e-015 -2.94201e-014
rhumerus -19.6987 -40.8846 -63.6951
rradius 78.1171
rwrist -62.5395
rhand -12.785 9.98797
rfingers 7.12502
rthumb 13.3004 -19.5676
lclavicle -1.54679e-015 -2.94201e-014
lhumerus -5.93928 27.65 63.1493
lradius 65.6717
lwrist 95.2319
lhand -4.78377 7.49588
lfingers 7.12502
lthumb 21.0012 36.3788
rfemur 0.795148 -4.89165 20.6878
rtibia 20.6867
rfoot -24.5112 -11.9998
rtoes -5.47072
lfemur -7.44007 -2.84385 -14.4126
ltibia 23.6476
lfoot -11.0027 -11.4448
ltoes 1.78475
1661
root 2.95087 17.5067 -0.0559793 548.68 79.5332 552.054
lowerback 7.45076 0.198841 6.1253
upperback 0.213421 0.957777 2.43668
thorax -3.90987 0.413289 -1.01263
lowerneck -2.02565 -6.79511 -4.51771
upperneck -1.52115 -8.89446 9.75184
head 0.576718 -4.37756 3.80731
rclavicle 4.84538e-016 9.54166e-015
rhumerus -20.6036 -41.4078 -63.3571
rradius 78.5851
rwrist -63.2674
rhand -12.9896 10.5563
rfingers 7.12502
rthumb 13.1032 -19.0121
lclavicle 4.84538e-016 9.54166e-015
lhumerus -6.57137 29.2082 64.0956
lradius 67.0704
lwrist 98.5825
lhand -4.32604 8.42871
lfingers 7.12502
lthumb 21.4408 37.2622
rfemur 0.798024 -4.78319 20.6068
rtibia 20.7713
rfoot -24.361 -11.8614
rtoes -5.83847
lfemur -7.22019 -2.77906 -14.4726
ltibia 23.6009
lfoot -11.1056 -11.1876
ltoes 2.11375
1662
root 2.96188 17.506 -0.0576595 548.663 79.9245 552.093
lowerback 7.40411 0.173043 6.0409
upperback 0.180475 0.907563 2.36323
thorax -3.92081 0.386983 -1.03615
lowerneck -1.87552 -6.75029 -4.28003
upperneck -2.03242 -8.80532 9.46324
head 0.351348 -4.34762 3.68235
rclavicle 6.14058e-015 -2.22639e-014
rhumerus -21.5472 -41.9956 -63.0189
rradius 78.9456
rwrist -63.6722
rhand -12.7689 10.932
rfingers 7.12502
rthumb 13.316 -18.6226
lclavicle 6.14058e-015 -2.22639e-014
lhumerus -7.22137 30.1682 64.9219
lradius 68.4588
lwrist 101.49
lhand -4.13582 8.94322
lfingers 7.12502
lthumb 21.6235 37.7558
rfemur 0.802732 -4.66637 20.5074
rtibia 20.8703
rfoot -24.3662 -11.6457
rtoes -5.7416
lfemur -7.00014 -2.66295 -14.5488
ltibia 23.5653
lfoot -11.2961 -10.9605
ltoes 1.89433
1663
root 2.97368 17.5039 -0.0587909 549.136 80.3173 552.594
lowerback 7.33475 0.145075 6.07112
upperback 0.135855 0.861512 2.26052
thorax -3.929 0.360097 -1.1542
lowerneck -1.91998 -6.70845 -4.24054
upperneck -2.29496 -8.72901 9.43812
head 0.266035 -4.31227 3.67238
rclavicle 5.55401e-014 -1.74931e-014
rhumerus -22.4538 -42.6607 -62.7286
rradius 79.269
rwrist -64.3335
rhand -12.1816 11.0386
rfingers 7.12502
rthumb 13.882 -18.4781
lclavicle 5.55401e-014 -1.74931e-014
lhumerus -7.91624 30.8955 65.5751
lradius 69.8089
lwrist 104.027
lhand -3.91949 9.04892
lfingers 7.12502
lthumb 21.8313 37.8375
rfemur 0.770334 -4.53283 20.5026
rtibia 20.9605
rfoot -24.3184 -11.5013
rtoes -6.06185
lfemur -6.83382 -2.53349 -14.5295
ltibia 23.5464
lfoot -11.4009 -10.7658
ltoes 2.31496
